                                                                        S      1
,,15HETREY TOP BOARD,15HETREY TOP BOARD,7Hunknown,7Hunknown,32,38,7,99, G      1
15,,1.,10,2HCM,1,0.08,15H20190905.183404,0.001,10000.,7Hunknown,7HunknowG      2
n,11,0,15H20190906.000813;                                              G      3
     408       1                                       5        00010001D      1
     408       0               1       0                               0D      2
     408       2                                                00000001D      3
     408       0               1       0                               0D      4
     124       3                                                00000000D      5
     124                       2       0                               0D      6
     308       5                                                00010200D      7
     308       0               1       0                               0D      8
     308       6                                                00010200D      9
     308       0               1       0                               0D     10
     186       7                                                00010000D     11
     186            -253       1       0                               0D     12
     186       8                                                00000000D     13
     186            -251       1       0                               0D     14
     514       9                                                00010000D     15
     514                       1       1                               0D     16
     514      10                                                00010000D     17
     514                       1       1                               0D     18
     510      11                                                00010000D     19
     510            -253       1       1                               0D     20
     510      12                                                00010000D     21
     510            -253       1       1                               0D     22
     510      13                                                00010000D     23
     510            -253       1       1                               0D     24
     510      14                                                00010000D     25
     510            -253       1       1                               0D     26
     510      15                                                00010000D     27
     510            -253       1       1                               0D     28
     510      16                                                00010000D     29
     510            -253       1       1                               0D     30
     510      17                                                00010000D     31
     510            -253       1       1                               0D     32
     510      18                                                00010000D     33
     510            -253       1       1                               0D     34
     510      19                                                00010000D     35
     510            -253       1       1                               0D     36
     510      20                                                00010000D     37
     510            -253       1       1                               0D     38
     510      21                                                00010000D     39
     510            -251       1       1                               0D     40
     510      22                                                00010000D     41
     510            -251       1       1                               0D     42
     510      23                                                00010000D     43
     510            -251       1       1                               0D     44
     510      24                                                00010000D     45
     510            -251       1       1                               0D     46
     510      25                                                00010000D     47
     510            -251       1       1                               0D     48
     510      26                                                00010000D     49
     510            -251       1       1                               0D     50
     510      27                                                00010000D     51
     510            -251       1       1                               0D     52
     510      28                                                00010000D     53
     510            -251       1       1                               0D     54
     510      29                                                00010000D     55
     510            -251       1       1                               0D     56
     510      30                                                00010000D     57
     510            -251       1       1                               0D     58
     508      31                                                00010000D     59
     508                       1       1                               0D     60
     508      32                                                00010000D     61
     508                       1       1                               0D     62
     508      33                                                00010000D     63
     508                       1       1                               0D     64
     508      34                                                00010000D     65
     508                       1       1                               0D     66
     508      35                                                00010000D     67
     508                       1       1                               0D     68
     508      36                                                00010000D     69
     508                       1       1                               0D     70
     508      37                                                00010000D     71
     508                       2       1                               0D     72
     508      39                                                00010000D     73
     508                       1       1                               0D     74
     508      40                                                00010000D     75
     508                       2       1                               0D     76
     508      42                                                00010000D     77
     508                       1       1                               0D     78
     508      43                                                00010000D     79
     508                       1       1                               0D     80
     508      44                                                00010000D     81
     508                       1       1                               0D     82
     508      45                                                00010000D     83
     508                       1       1                               0D     84
     508      46                                                00010000D     85
     508                       1       1                               0D     86
     508      47                                                00010000D     87
     508                       1       1                               0D     88
     508      48                                                00010000D     89
     508                       1       1                               0D     90
     508      49                                                00010000D     91
     508                       1       1                               0D     92
     508      50                                                00010000D     93
     508                       1       1                               0D     94
     508      51                                                00010000D     95
     508                       2       1                               0D     96
     508      53                                                00010000D     97
     508                       2       1                               0D     98
     126      55                                                00010000D     99
     126       0               3       0                               0D    100
     126      58                                                00010000D    101
     126       0               5       0                               0D    102
     126      63                                                00010000D    103
     126       0               3       0                               0D    104
     126      66                                                00010000D    105
     126       0               4       0                               0D    106
     126      70                                                00010000D    107
     126       0               3       0                               0D    108
     126      73                                                00010000D    109
     126       0               3       0                               0D    110
     126      76                                                00010000D    111
     126       0               3       0                               0D    112
     126      79                                                00010000D    113
     126       0               3       0                               0D    114
     126      82                                                00010000D    115
     126       0               3       0                               0D    116
     126      85                                                00010000D    117
     126       0               3       0                               0D    118
     126      88                                                00010000D    119
     126       0               3       0                               0D    120
     126      91                                                00010000D    121
     126       0               3       0                               0D    122
     126      94                                                00010000D    123
     126       0               3       0                               0D    124
     126      97                                                00010000D    125
     126       0               3       0                               0D    126
     126     100                                                00010000D    127
     126       0               4       0                               0D    128
     126     104                                                00010000D    129
     126       0               3       0                               0D    130
     126     107                                                00010000D    131
     126       0               4       0                               0D    132
     126     111                                                00010000D    133
     126       0               3       0                               0D    134
     126     114                                                00010000D    135
     126       0               3       0                               0D    136
     126     117                                                00010000D    137
     126       0               3       0                               0D    138
     126     120                                                00010000D    139
     126       0               3       0                               0D    140
     126     123                                                00010000D    141
     126       0               3       0                               0D    142
     126     126                                                00010000D    143
     126       0               3       0                               0D    144
     126     129                                                00010000D    145
     126       0               3       0                               0D    146
     126     132                                                00010000D    147
     126       0               3       0                               0D    148
     126     135                                                00010000D    149
     126       0               3       0                               0D    150
     126     138                                                00010000D    151
     126       0               3       0                               0D    152
     126     141                                                00010000D    153
     126       0               3       0                               0D    154
     126     144                                                00010000D    155
     126       0               3       0                               0D    156
     126     147                                                00010000D    157
     126       0               3       0                               0D    158
     126     150                                                00010000D    159
     126       0               3       0                               0D    160
     126     153                                                00010000D    161
     126       0               4       0                               0D    162
     126     157                                                00010000D    163
     126       0               4       0                               0D    164
     126     161                                                00010000D    165
     126       0               3       0                               0D    166
     126     164                                                00010000D    167
     126       0               3       0                               0D    168
     126     167                                                00010000D    169
     126       0               3       0                               0D    170
     126     170                                                00010000D    171
     126       0               3       0                               0D    172
     126     173                                                00010000D    173
     126       0               3       0                               0D    174
     126     176                                                00010000D    175
     126       0               3       0                               0D    176
     126     179                                                00010000D    177
     126       0               3       0                               0D    178
     126     182                                                00010000D    179
     126       0               3       0                               0D    180
     126     185                                                00010000D    181
     126       0               3       0                               0D    182
     126     188                                                00010000D    183
     126       0               3       0                               0D    184
     126     191                                                00010000D    185
     126       0               4       0                               0D    186
     126     195                                                00010000D    187
     126       0               4       0                               0D    188
     126     199                                                00010000D    189
     126       0               3       0                               0D    190
     126     202                                                00010000D    191
     126       0               3       0                               0D    192
     126     205                                                00010000D    193
     126       0               3       0                               0D    194
     128     208                                                00010000D    195
     128       0    -253       7       0                               0D    196
     128     215                                                00010000D    197
     128       0    -253       8       0                               0D    198
     128     223                                                00010000D    199
     128       0    -253       8       0                               0D    200
     128     231                                                00010000D    201
     128       0    -253       9       0                               0D    202
     128     240                                                00010000D    203
     128       0    -253       9       0                               0D    204
     128     249                                                00010000D    205
     128       0    -253       9       0                               0D    206
     128     258                                                00010000D    207
     128       0    -253       8       0                               0D    208
     128     266                                                00010000D    209
     128       0    -253       8       0                               0D    210
     128     274                                                00010000D    211
     128       0    -253       8       0                               0D    212
     128     282                                                00010000D    213
     128       0    -253       8       0                               0D    214
     128     290                                                00010000D    215
     128       0    -251       8       0                               0D    216
     128     298                                                00010000D    217
     128       0    -251       6       0                               0D    218
     128     304                                                00010000D    219
     128       0    -251       9       0                               0D    220
     128     313                                                00010000D    221
     128       0    -251       6       0                               0D    222
     128     319                                                00010000D    223
     128       0    -251       8       0                               0D    224
     128     327                                                00010000D    225
     128       0    -251       6       0                               0D    226
     128     333                                                00010000D    227
     128       0    -251       8       0                               0D    228
     128     341                                                00010000D    229
     128       0    -251       6       0                               0D    230
     128     347                                                00010000D    231
     128       0    -251       7       0                               0D    232
     128     354                                                00010000D    233
     128       0    -251       7       0                               0D    234
     502     361                                                00010000D    235
     502                      16       1                               0D    236
     502     377                                                00010000D    237
     502                      16       1                               0D    238
     504     393                                                00010001D    239
     504                       7       1                               0D    240
     504     400                                                00010001D    241
     504                       7       1                               0D    242
     406     407                                                00000000D    243
     406                       1      15                               0D    244
     406     408                                                00000000D    245
     406                       1      15                               0D    246
     406     409                                                00000000D    247
     406                       1      15                               0D    248
     406     410                                                00000000D    249
     406                       1      15                               0D    250
     314     411                                                00000200D    251
     314                       2       0                               0D    252
     314     413                                                00000200D    253
     314                       2       0                               0D    254
     314     415                                                00000200D    255
     314                       2       0                               0D    256
     314     417                                                00000200D    257
     314                       2       0                               0D    258
     314     419                                                00000200D    259
     314                       2       0                               0D    260
408,7,0.,0.,0.,1.,0,1,245;                                             1P      1
408,9,0.,0.,0.,1.,0,1,247;                                             3P      2
124,1.,0.,0.,0.,0.,9.7838404045092D-15,1.,-5.30321936400923,0.,        5P      3
-1.,9.7838404045092D-15,20.0980659592847;                              5P      4
308,0,21HETRAY-ASM-TRAY-R1 v15,1,11;                                   7P      5
308,1,10HETREY 2 v1,1,1;                                               9P      6
186,15,1,0,0,1,243;                                                   11P      7
186,17,1,0,0,1,249;                                                   13P      8
514,10,19,1,21,1,23,1,25,1,27,1,29,1,31,1,33,1,35,1,37,1;             15P      9
514,10,39,1,41,1,43,1,45,1,47,1,49,1,51,1,53,1,55,1,57,1;             17P     10
510,195,1,1,59;                                                       19P     11
510,197,1,1,61;                                                       21P     12
510,199,1,1,63;                                                       23P     13
510,201,1,1,65;                                                       25P     14
510,203,1,1,67;                                                       27P     15
510,205,1,1,69;                                                       29P     16
510,207,1,1,71;                                                       31P     17
510,209,1,1,73;                                                       33P     18
510,211,1,1,75;                                                       35P     19
510,213,1,1,77;                                                       37P     20
510,215,1,1,79;                                                       39P     21
510,217,1,1,81;                                                       41P     22
510,219,1,1,83;                                                       43P     23
510,221,1,1,85;                                                       45P     24
510,223,1,1,87;                                                       47P     25
510,225,1,1,89;                                                       49P     26
510,227,1,1,91;                                                       51P     27
510,229,1,1,93;                                                       53P     28
510,231,1,1,95;                                                       55P     29
510,233,1,1,97;                                                       57P     30
508,4,0,239,1,1,0,0,239,2,1,0,0,239,3,1,0,0,239,4,1,0;                59P     31
508,4,0,239,5,0,0,0,239,6,1,0,0,239,3,0,0,0,239,7,0,0;                61P     32
508,4,0,239,8,0,0,0,239,9,1,0,0,239,1,0,0,0,239,10,0,0;               63P     33
508,4,0,239,8,1,0,0,239,11,1,0,0,239,12,1,0,0,239,13,1,0;             65P     34
508,4,0,239,14,1,0,0,239,15,1,0,0,239,16,1,0,0,239,17,1,0;            67P     35
508,4,0,239,5,1,0,0,239,18,1,0,0,239,19,1,0,0,239,20,1,0;             69P     36
508,8,0,239,21,1,0,0,239,18,0,0,0,239,7,1,0,0,239,2,0,0,0,239,9,      71P     37
0,0,0,239,13,0,0,0,239,22,0,0,0,239,17,0,0;                           71P     38
508,4,0,239,23,1,0,0,239,19,0,0,0,239,21,0,0,0,239,16,0,0;            73P     39
508,8,0,239,24,1,0,0,239,11,0,0,0,239,10,1,0,0,239,4,0,0,0,239,       75P     40
6,0,0,0,239,20,0,0,0,239,23,0,0,0,239,15,0,0;                         75P     41
508,4,0,239,22,1,0,0,239,12,0,0,0,239,24,0,0,0,239,14,0,0;            77P     42
508,4,0,241,1,1,0,0,241,2,1,0,0,241,3,0,0,0,241,4,0,0;                79P     43
508,4,0,241,5,1,0,0,241,4,1,0,0,241,6,0,0,0,241,7,0,0;                81P     44
508,4,0,241,8,1,0,0,241,7,1,0,0,241,9,0,0,0,241,10,0,0;               83P     45
508,4,0,241,11,1,0,0,241,10,1,0,0,241,12,0,0,0,241,13,0,0;            85P     46
508,4,0,241,14,1,0,0,241,13,1,0,0,241,15,0,0,0,241,16,0,0;            87P     47
508,4,0,241,17,1,0,0,241,16,1,0,0,241,18,0,0,0,241,19,0,0;            89P     48
508,4,0,241,20,1,0,0,241,19,1,0,0,241,21,0,0,0,241,22,0,0;            91P     49
508,4,0,241,23,1,0,0,241,22,1,0,0,241,24,0,0,0,241,2,0,0;             93P     50
508,8,0,241,24,1,0,0,241,21,1,0,0,241,18,1,0,0,241,15,1,0,0,241,      95P     51
12,1,0,0,241,9,1,0,0,241,6,1,0,0,241,3,1,0;                           95P     52
508,8,0,241,23,0,0,0,241,1,0,0,0,241,5,0,0,0,241,8,0,0,0,241,11,      97P     53
0,0,0,241,14,0,0,0,241,17,0,0,0,241,20,0,0;                           97P     54
126,1,1,0,0,1,0,0.,0.,0.25,0.25,1.,1.,-8.66194523780073,              99P     55
8.40000013261306,12.3731964962206,-8.66194523780073,                  99P     56
8.40000013261306,12.1231964962206,0.,0.25,0.,0.,0.;                   99P     57
126,1,1,0,0,1,0,8.88178419700125D-15,8.88178419700125D-15,           101P     58
1.95856321090001,1.95856321090001,1.,1.,-8.66194523780073,           101P     59
8.40000013261306,12.1231964962206,-8.66194523780073,                 101P     60
6.44143692171306,12.1231964962206,8.88178419700125D-15,              101P     61
1.95856321090001,0.,0.,0.;                                           101P     62
126,1,1,0,0,1,0,0.,0.,0.25,0.25,1.,1.,-8.66194523780073,             103P     63
6.44143692171306,12.1231964962206,-8.66194523780073,                 103P     64
6.44143692171306,12.3731964962206,0.,0.25,0.,0.,0.;                  103P     65
126,1,1,0,0,1,0,0.,0.,1.9585632109,1.9585632109,1.,1.,               105P     66
-8.66194523780073,6.44143692171306,12.3731964962206,                 105P     67
-8.66194523780073,8.40000013261306,12.3731964962206,0.,              105P     68
1.9585632109,0.,0.,0.;                                               105P     69
126,1,1,0,0,1,0,0.,0.,0.25,0.25,1.,1.,-8.06194523780073,             107P     70
6.44143692171306,12.3731964962206,-8.06194523780073,                 107P     71
6.44143692171306,12.1231964962206,0.,0.25,0.,0.,0.;                  107P     72
126,1,1,0,0,1,0,0.,0.,0.6,0.6,1.,1.,-8.06194523780073,               109P     73
6.44143692171306,12.3731964962206,-8.66194523780073,                 109P     74
6.44143692171306,12.3731964962206,0.,0.6,0.,0.,0.;                   109P     75
126,1,1,0,0,1,0,0.,0.,0.6,0.6,1.,1.,-8.06194523780073,               111P     76
6.44143692171306,12.1231964962206,-8.66194523780073,                 111P     77
6.44143692171306,12.1231964962206,0.,0.6,0.,0.,0.;                   111P     78
126,1,1,0,0,1,0,0.,0.,0.25,0.25,1.,1.,-8.06194523780073,             113P     79
8.40000013261306,12.1231964962206,-8.06194523780073,                 113P     80
8.40000013261306,12.3731964962206,0.,0.25,0.,0.,0.;                  113P     81
126,1,1,0,0,1,0,0.,0.,0.6,0.6,1.,1.,-8.06194523780073,               115P     82
8.40000013261306,12.1231964962206,-8.66194523780073,                 115P     83
8.40000013261306,12.1231964962206,0.,0.6,0.,0.,0.;                   115P     84
126,1,1,0,0,1,0,0.,0.,0.6,0.6,1.,1.,-8.06194523780073,               117P     85
8.40000013261306,12.3731964962206,-8.66194523780073,                 117P     86
8.40000013261306,12.3731964962206,0.,0.6,0.,0.,0.;                   117P     87
126,1,1,0,0,1,0,0.,0.,0.5,0.5,1.,1.,-8.06194523780073,               119P     88
8.40000013261306,12.3731964962206,-8.06194523780073,                 119P     89
8.90000013261306,12.3731964962206,0.,0.5,0.,0.,0.;                   119P     90
126,1,1,0,0,1,0,0.,0.,0.25,0.25,1.,1.,-8.06194523780073,             121P     91
8.90000013261306,12.3731964962206,-8.06194523780073,                 121P     92
8.90000013261306,12.1231964962206,0.,0.25,0.,0.,0.;                  121P     93
126,1,1,0,0,1,0,0.,0.,0.5,0.5,1.,1.,-8.06194523780073,               123P     94
8.90000013261306,12.1231964962206,-8.06194523780073,                 123P     95
8.40000013261306,12.1231964962206,0.,0.5,0.,0.,0.;                   123P     96
126,1,1,0,0,1,0,0.,0.,0.25,0.25,1.,1.,14.9380547621993,              125P     97
8.90000013261306,12.1231964962206,14.9380547621993,                  125P     98
8.90000013261306,12.3731964962206,0.,0.25,0.,0.,0.;                  125P     99
126,1,1,0,0,1,0,0.,0.,2.9585632109,2.9585632109,1.,1.,               127P    100
14.9380547621993,8.90000013261306,12.3731964962206,                  127P    101
14.9380547621993,5.94143692171306,12.3731964962206,0.,               127P    102
2.9585632109,0.,0.,0.;                                               127P    103
126,1,1,0,0,1,0,0.,0.,0.25,0.25,1.,1.,14.9380547621993,              129P    104
5.94143692171306,12.3731964962206,14.9380547621993,                  129P    105
5.94143692171306,12.1231964962206,0.,0.25,0.,0.,0.;                  129P    106
126,1,1,0,0,1,0,0.,0.,2.9585632109,2.9585632109,1.,1.,               131P    107
14.9380547621993,5.94143692171306,12.1231964962206,                  131P    108
14.9380547621993,8.90000013261306,12.1231964962206,0.,               131P    109
2.9585632109,0.,0.,0.;                                               131P    110
126,1,1,0,0,1,0,0.,0.,0.5,0.5,1.,1.,-8.06194523780073,               133P    111
6.44143692171306,12.1231964962206,-8.06194523780073,                 133P    112
5.94143692171306,12.1231964962206,0.,0.5,0.,0.,0.;                   133P    113
126,1,1,0,0,1,0,0.,0.,0.25,0.25,1.,1.,-8.06194523780073,             135P    114
5.94143692171306,12.1231964962206,-8.06194523780073,                 135P    115
5.94143692171306,12.3731964962206,0.,0.25,0.,0.,0.;                  135P    116
126,1,1,0,0,1,0,0.,0.,0.5,0.5,1.,1.,-8.06194523780073,               137P    117
5.94143692171306,12.3731964962206,-8.06194523780073,                 137P    118
6.44143692171306,12.3731964962206,0.,0.5,0.,0.,0.;                   137P    119
126,1,1,0,0,1,0,0.,0.,23.,23.,1.,1.,14.9380547621993,                139P    120
5.94143692171306,12.1231964962206,-8.06194523780073,                 139P    121
5.94143692171306,12.1231964962206,0.,23.,0.,0.,0.;                   139P    122
126,1,1,0,0,1,0,0.,0.,23.,23.,1.,1.,14.9380547621993,                141P    123
8.90000013261306,12.1231964962206,-8.06194523780073,                 141P    124
8.90000013261306,12.1231964962206,0.,23.,0.,0.,0.;                   141P    125
126,1,1,0,0,1,0,0.,0.,23.,23.,1.,1.,14.9380547621993,                143P    126
5.94143692171306,12.3731964962206,-8.06194523780073,                 143P    127
5.94143692171306,12.3731964962206,0.,23.,0.,0.,0.;                   143P    128
126,1,1,0,0,1,0,0.,0.,23.,23.,1.,1.,14.9380547621993,                145P    129
8.90000013261306,12.3731964962206,-8.06194523780073,                 145P    130
8.90000013261306,12.3731964962206,0.,23.,0.,0.,0.;                   145P    131
126,1,1,0,0,1,0,0.,0.,0.5,0.5,1.,1.,-8.06194523780072,               147P    132
6.31997713221145,11.6980658266718,-8.06194523780072,                 147P    133
6.31997713221146,11.1980658266718,0.,0.5,0.,0.,0.;                   147P    134
126,1,1,0,0,1,0,0.,0.,0.25,0.25,1.,1.,-8.06194523780072,             149P    135
6.31997713221146,11.1980658266718,-8.06194523780072,                 149P    136
6.06997713221146,11.1980658266718,0.,0.25,0.,0.,0.;                  149P    137
126,1,1,0,0,1,0,0.,0.,0.5,0.5,1.,1.,-8.06194523780072,               151P    138
6.06997713221145,11.6980658266718,-8.06194523780072,                 151P    139
6.06997713221146,11.1980658266718,0.,0.5,0.,0.,0.;                   151P    140
126,1,1,0,0,1,0,0.,0.,0.25,0.25,1.,1.,-8.06194523780072,             153P    141
6.31997713221145,11.6980658266718,-8.06194523780072,                 153P    142
6.06997713221145,11.6980658266718,0.,0.25,0.,0.,0.;                  153P    143
126,1,1,0,0,1,0,0.,0.,0.6,0.6,1.,1.,-8.66194523780072,               155P    144
6.31997713221145,11.6980658266718,-8.06194523780072,                 155P    145
6.31997713221145,11.6980658266718,0.,0.6,0.,0.,0.;                   155P    146
126,1,1,0,0,1,0,0.,0.,0.6,0.6,1.,1.,-8.66194523780072,               157P    147
6.06997713221145,11.6980658266718,-8.06194523780072,                 157P    148
6.06997713221145,11.6980658266718,0.,0.6,0.,0.,0.;                   157P    149
126,1,1,0,0,1,0,0.,0.,0.25,0.25,1.,1.,-8.66194523780072,             159P    150
6.31997713221145,11.6980658266718,-8.66194523780072,                 159P    151
6.06997713221145,11.6980658266718,0.,0.25,0.,0.,0.;                  159P    152
126,1,1,0,0,1,0,0.,0.,1.9585632109,1.9585632109,1.,1.,               161P    153
-8.66194523780072,6.31997713221143,13.6566290375718,                 161P    154
-8.66194523780072,6.31997713221145,11.6980658266718,0.,              161P    155
1.9585632109,0.,0.,0.;                                               161P    156
126,1,1,0,0,1,0,0.,0.,1.9585632109,1.9585632109,1.,1.,               163P    157
-8.66194523780072,6.06997713221143,13.6566290375718,                 163P    158
-8.66194523780072,6.06997713221145,11.6980658266718,0.,              163P    159
1.9585632109,0.,0.,0.;                                               163P    160
126,1,1,0,0,1,0,0.,0.,0.25,0.25,1.,1.,-8.66194523780072,             165P    161
6.31997713221143,13.6566290375718,-8.66194523780072,                 165P    162
6.06997713221143,13.6566290375718,0.,0.25,0.,0.,0.;                  165P    163
126,1,1,0,0,1,0,0.,0.,0.6,0.6,1.,1.,-8.06194523780072,               167P    164
6.31997713221143,13.6566290375718,-8.66194523780072,                 167P    165
6.31997713221143,13.6566290375718,0.,0.6,0.,0.,0.;                   167P    166
126,1,1,0,0,1,0,0.,0.,0.6,0.6,1.,1.,-8.06194523780072,               169P    167
6.06997713221143,13.6566290375718,-8.66194523780072,                 169P    168
6.06997713221143,13.6566290375718,0.,0.6,0.,0.,0.;                   169P    169
126,1,1,0,0,1,0,0.,0.,0.25,0.25,1.,1.,-8.06194523780072,             171P    170
6.31997713221143,13.6566290375718,-8.06194523780072,                 171P    171
6.06997713221143,13.6566290375718,0.,0.25,0.,0.,0.;                  171P    172
126,1,1,0,0,1,0,0.,0.,0.5,0.5,1.,1.,-8.06194523780072,               173P    173
6.31997713221143,14.1566290375718,-8.06194523780072,                 173P    174
6.31997713221143,13.6566290375718,0.,0.5,0.,0.,0.;                   173P    175
126,1,1,0,0,1,0,0.,0.,0.5,0.5,1.,1.,-8.06194523780072,               175P    176
6.06997713221143,14.1566290375718,-8.06194523780072,                 175P    177
6.06997713221143,13.6566290375718,0.,0.5,0.,0.,0.;                   175P    178
126,1,1,0,0,1,0,0.,0.,0.25,0.25,1.,1.,-8.06194523780072,             177P    179
6.31997713221143,14.1566290375718,-8.06194523780072,                 177P    180
6.06997713221143,14.1566290375718,0.,0.25,0.,0.,0.;                  177P    181
126,1,1,0,0,1,0,0.,0.,23.,23.,1.,1.,14.9380547621993,                179P    182
6.31997713221143,14.1566290375718,-8.06194523780072,                 179P    183
6.31997713221143,14.1566290375718,0.,23.,0.,0.,0.;                   179P    184
126,1,1,0,0,1,0,0.,0.,23.,23.,1.,1.,14.9380547621993,                181P    185
6.06997713221143,14.1566290375718,-8.06194523780072,                 181P    186
6.06997713221143,14.1566290375718,0.,23.,0.,0.,0.;                   181P    187
126,1,1,0,0,1,0,0.,0.,0.25,0.25,1.,1.,14.9380547621993,              183P    188
6.31997713221143,14.1566290375718,14.9380547621993,                  183P    189
6.06997713221143,14.1566290375718,0.,0.25,0.,0.,0.;                  183P    190
126,1,1,0,0,1,0,0.,0.,2.9585632109,2.9585632109,1.,1.,               185P    191
14.9380547621993,6.31997713221146,11.1980658266718,                  185P    192
14.9380547621993,6.31997713221143,14.1566290375718,0.,               185P    193
2.9585632109,0.,0.,0.;                                               185P    194
126,1,1,0,0,1,0,0.,0.,2.9585632109,2.9585632109,1.,1.,               187P    195
14.9380547621993,6.06997713221146,11.1980658266718,                  187P    196
14.9380547621993,6.06997713221143,14.1566290375718,0.,               187P    197
2.9585632109,0.,0.,0.;                                               187P    198
126,1,1,0,0,1,0,0.,0.,0.25,0.25,1.,1.,14.9380547621993,              189P    199
6.31997713221146,11.1980658266718,14.9380547621993,                  189P    200
6.06997713221146,11.1980658266718,0.,0.25,0.,0.,0.;                  189P    201
126,1,1,0,0,1,0,0.,0.,23.,23.,1.,1.,-8.06194523780072,               191P    202
6.31997713221146,11.1980658266718,14.9380547621993,                  191P    203
6.31997713221146,11.1980658266718,0.,23.,0.,0.,0.;                   191P    204
126,1,1,0,0,1,0,0.,0.,23.,23.,1.,1.,-8.06194523780072,               193P    205
6.06997713221146,11.1980658266718,14.9380547621993,                  193P    206
6.06997713221146,11.1980658266718,0.,23.,0.,0.,0.;                   193P    207
128,1,1,1,1,0,0,1,0,0,-0.126,-0.126,0.126,0.126,                     195P    208
3.33934269125535D-16,3.33934269125535D-16,1.9605632109,              195P    209
1.9605632109,1.,1.,1.,1.,-8.66194523780073,6.44043692171306,         195P    210
12.1221964962206,-8.66194523780073,6.44043692171306,                 195P    211
12.3741964962206,-8.66194523780073,8.40100013261306,                 195P    212
12.1221964962206,-8.66194523780073,8.40100013261306,                 195P    213
12.3741964962206,-0.126,0.126,3.33934269125535D-16,1.9605632109;     195P    214
128,1,1,1,1,0,0,1,0,0,-0.126,-0.126,0.126,0.126,                     197P    215
-0.601999999999999,-0.601999999999999,5.5424415057459D-16,           197P    216
5.5424415057459D-16,1.,1.,1.,1.,-8.66294523780073,                   197P    217
6.44143692171306,12.3741964962206,-8.66294523780073,                 197P    218
6.44143692171306,12.1221964962206,-8.06094523780073,                 197P    219
6.44143692171306,12.3741964962206,-8.06094523780073,                 197P    220
6.44143692171306,12.1221964962206,-0.126,0.126,                      197P    221
-0.601999999999999,5.5424415057459D-16;                              197P    222
128,1,1,1,1,0,0,1,0,0,-0.126,-0.126,0.126,0.126,                     199P    223
-0.601999999999999,-0.601999999999999,5.5424415057459D-16,           199P    224
5.5424415057459D-16,1.,1.,1.,1.,-8.66294523780073,                   199P    225
8.40000013261306,12.1221964962206,-8.66294523780073,                 199P    226
8.40000013261306,12.3741964962206,-8.06094523780073,                 199P    227
8.40000013261306,12.1221964962206,-8.06094523780073,                 199P    228
8.40000013261306,12.3741964962206,-0.126,0.126,                      199P    229
-0.601999999999999,5.5424415057459D-16;                              199P    230
128,1,1,1,1,0,0,1,0,0,1.22211268882566D-15,1.22211268882566D-15,     201P    231
0.252000000000001,0.252000000000001,-0.250999999999998,              201P    232
-0.250999999999998,0.251000000000002,0.251000000000002,1.,1.,1.,     201P    233
1.,-8.06194523780073,8.39900013261306,12.1221964962206,              201P    234
-8.06194523780073,8.39900013261306,12.3741964962206,                 201P    235
-8.06194523780073,8.90100013261306,12.1221964962206,                 201P    236
-8.06194523780073,8.90100013261306,12.3741964962206,                 201P    237
1.22211268882566D-15,0.252000000000001,-0.250999999999998,           201P    238
0.251000000000002;                                                   201P    239
128,1,1,1,1,0,0,1,0,0,-0.252000000000001,-0.252000000000001,         203P    240
-1.22124532708767D-15,-1.22124532708767D-15,-1.48028160545,          203P    241
-1.48028160545,1.48028160545,1.48028160545,1.,1.,1.,1.,              203P    242
14.9380547621993,5.94043692171306,12.3741964962206,                  203P    243
14.9380547621993,5.94043692171306,12.1221964962206,                  203P    244
14.9380547621993,8.90100013261306,12.3741964962206,                  203P    245
14.9380547621993,8.90100013261306,12.1221964962206,                  203P    246
-0.252000000000001,-1.22124532708767D-15,-1.48028160545,             203P    247
1.48028160545;                                                       203P    248
128,1,1,1,1,0,0,1,0,0,1.22211268882566D-15,1.22211268882566D-15,     205P    249
0.252000000000001,0.252000000000001,-0.251000000000005,              205P    250
-0.251000000000005,0.250999999999995,0.250999999999995,1.,1.,1.,     205P    251
1.,-8.06194523780073,5.94043692171306,12.1221964962206,              205P    252
-8.06194523780073,5.94043692171306,12.3741964962206,                 205P    253
-8.06194523780073,6.44243692171306,12.1221964962206,                 205P    254
-8.06194523780073,6.44243692171306,12.3741964962206,                 205P    255
1.22211268882566D-15,0.252000000000001,-0.251000000000005,           205P    256
0.250999999999995;                                                   205P    257
128,1,1,1,1,0,0,1,0,0,-11.801,-11.801,11.801,11.801,                 207P    258
3.33934269125535D-16,3.33934269125535D-16,2.9605632109,              207P    259
2.9605632109,1.,1.,1.,1.,14.9390547621993,5.94043692171306,          207P    260
12.1231964962206,-8.66294523780073,5.94043692171306,                 207P    261
12.1231964962206,14.9390547621993,8.90100013261306,                  207P    262
12.1231964962206,-8.66294523780073,8.90100013261306,                 207P    263
12.1231964962206,-11.801,11.801,3.33934269125535D-16,                207P    264
2.9605632109;                                                        207P    265
128,1,1,1,1,0,0,1,0,0,-0.252000000000001,-0.252000000000001,         209P    266
-1.22124532708767D-15,-1.22124532708767D-15,-11.501,-11.501,         209P    267
11.501,11.501,1.,1.,1.,1.,-8.06294523780073,5.94143692171306,        209P    268
12.3741964962206,-8.06294523780073,5.94143692171306,                 209P    269
12.1221964962206,14.9390547621993,5.94143692171306,                  209P    270
12.3741964962206,14.9390547621993,5.94143692171306,                  209P    271
12.1221964962206,-0.252000000000001,-1.22124532708767D-15,           209P    272
-11.501,11.501;                                                      209P    273
128,1,1,1,1,0,0,1,0,0,-11.801,-11.801,11.801,11.801,                 211P    274
3.33934269125535D-16,3.33934269125535D-16,2.9605632109,              211P    275
2.9605632109,1.,1.,1.,1.,-8.66294523780073,5.94043692171306,         211P    276
12.3731964962206,14.9390547621993,5.94043692171306,                  211P    277
12.3731964962206,-8.66294523780073,8.90100013261306,                 211P    278
12.3731964962206,14.9390547621993,8.90100013261306,                  211P    279
12.3731964962206,-11.801,11.801,3.33934269125535D-16,                211P    280
2.9605632109;                                                        211P    281
128,1,1,1,1,0,0,1,0,0,1.22211268882566D-15,1.22211268882566D-15,     213P    282
0.252000000000001,0.252000000000001,-11.501,-11.501,11.501,          213P    283
11.501,1.,1.,1.,1.,-8.06294523780073,8.90000013261306,               213P    284
12.1221964962206,-8.06294523780073,8.90000013261306,                 213P    285
12.3741964962206,14.9390547621993,8.90000013261306,                  213P    286
12.1221964962206,14.9390547621993,8.90000013261306,                  213P    287
12.3741964962206,1.22211268882566D-15,0.252000000000001,-11.501,     213P    288
11.501;                                                              213P    289
128,1,1,1,1,0,0,1,0,0,-0.00100000000000178,-0.00100000000000178,     215P    290
0.501000000000001,0.501000000000001,-0.00100000000000044,            215P    291
-0.00100000000000044,0.251,0.251,1.,1.,1.,1.,-8.06194523780072,      215P    292
6.32097713221145,11.6990658266718,-8.06194523780072,                 215P    293
6.32097713221146,11.1970658266718,-8.06194523780072,                 215P    294
6.06897713221145,11.6990658266718,-8.06194523780072,                 215P    295
6.06897713221146,11.1970658266717,-0.00100000000000178,              215P    296
0.501000000000001,-0.00100000000000044,0.251;                        215P    297
128,1,1,1,1,0,0,1,0,0,-0.001,-0.001,0.601,0.601,-0.001,-0.001,       217P    298
0.251,0.251,1.,1.,1.,1.,-8.66294523780072,6.32097713221145,          217P    299
11.6980658266718,-8.06094523780072,6.32097713221145,                 217P    300
11.6980658266718,-8.66294523780072,6.06897713221145,                 217P    301
11.6980658266718,-8.06094523780072,6.06897713221145,                 217P    302
11.6980658266717,-0.001,0.601,-0.001,0.251;                          217P    303
128,1,1,1,1,0,0,1,0,0,-0.00100000000000178,-0.00100000000000178,     219P    304
1.9595632109,1.9595632109,-0.00100000000000089,                      219P    305
-0.00100000000000089,0.251000000000001,0.251000000000001,1.,1.,      219P    306
1.,1.,-8.66194523780072,6.32097713221143,13.6576290375718,           219P    307
-8.66194523780072,6.32097713221145,11.6970658266718,                 219P    308
-8.66194523780072,6.06897713221143,13.6576290375718,                 219P    309
-8.66194523780072,6.06897713221145,11.6970658266717,                 219P    310
-0.00100000000000178,1.9595632109,-0.00100000000000089,              219P    311
0.251000000000001;                                                   219P    312
128,1,1,1,1,0,0,1,0,0,-0.001,-0.001,0.601,0.601,-0.001,-0.001,       221P    313
0.251,0.251,1.,1.,1.,1.,-8.06094523780072,6.32097713221143,          221P    314
13.6566290375718,-8.66294523780072,6.32097713221143,                 221P    315
13.6566290375718,-8.06094523780072,6.06897713221143,                 221P    316
13.6566290375718,-8.66294523780072,6.06897713221143,                 221P    317
13.6566290375718,-0.001,0.601,-0.001,0.251;                          221P    318
128,1,1,1,1,0,0,1,0,0,-0.00100000000000129,-0.00100000000000129,     223P    319
0.501,0.501,-0.00100000000000044,-0.00100000000000044,0.251,         223P    320
0.251,1.,1.,1.,1.,-8.06194523780072,6.32097713221143,                223P    321
14.1576290375718,-8.06194523780072,6.32097713221143,                 223P    322
13.6556290375718,-8.06194523780072,6.06897713221143,                 223P    323
14.1576290375718,-8.06194523780072,6.06897713221143,                 223P    324
13.6556290375718,-0.00100000000000129,0.501,                         223P    325
-0.00100000000000044,0.251;                                          223P    326
128,1,1,1,1,0,0,1,0,0,-0.001,-0.001,23.001,23.001,-0.001,-0.001,     225P    327
0.251,0.251,1.,1.,1.,1.,14.9390547621993,6.32097713221143,           225P    328
14.1566290375718,-8.06294523780072,6.32097713221143,                 225P    329
14.1566290375718,14.9390547621993,6.06897713221143,                  225P    330
14.1566290375718,-8.06294523780072,6.06897713221143,                 225P    331
14.1566290375718,-0.001,23.001,-0.001,0.251;                         225P    332
128,1,1,1,1,0,0,1,0,0,-0.00100000000000062,-0.00100000000000062,     227P    333
2.9595632109,2.9595632109,-0.00100000000000039,                      227P    334
-0.00100000000000039,0.251,0.251,1.,1.,1.,1.,14.9380547621993,       227P    335
6.32097713221146,11.1970658266718,14.9380547621993,                  227P    336
6.32097713221143,14.1576290375718,14.9380547621993,                  227P    337
6.06897713221146,11.1970658266717,14.9380547621993,                  227P    338
6.06897713221143,14.1576290375718,-0.00100000000000062,              227P    339
2.9595632109,-0.00100000000000039,0.251;                             227P    340
128,1,1,1,1,0,0,1,0,0,-0.001,-0.001,23.001,23.001,-0.001,-0.001,     229P    341
0.251,0.251,1.,1.,1.,1.,-8.06294523780072,6.32097713221146,          229P    342
11.1980658266718,14.9390547621993,6.32097713221146,                  229P    343
11.1980658266718,-8.06294523780072,6.06897713221146,                 229P    344
11.1980658266718,14.9390547621993,6.06897713221146,                  229P    345
11.1980658266717,-0.001,23.001,-0.001,0.251;                         229P    346
128,1,1,1,1,0,0,1,0,0,-1.48028160545,-1.48028160545,                 231P    347
1.48028160545,1.48028160545,-11.801,-11.801,11.801,11.801,1.,1.,     231P    348
1.,1.,-8.66294523780072,6.06997713221144,14.1576290375718,           231P    349
-8.66294523780072,6.06997713221146,11.1970658266718,                 231P    350
14.9390547621993,6.06997713221144,14.1576290375718,                  231P    351
14.9390547621993,6.06997713221146,11.1970658266718,                  231P    352
-1.48028160545,1.48028160545,-11.801,11.801;                         231P    353
128,1,1,1,1,0,0,1,0,0,-11.801,-11.801,11.801,11.801,                 233P    354
-1.48028160545,-1.48028160545,1.48028160545,1.48028160545,1.,1.,     233P    355
1.,1.,14.9390547621993,6.31997713221146,11.1970658266718,            233P    356
-8.66294523780072,6.31997713221146,11.1970658266718,                 233P    357
14.9390547621993,6.31997713221143,14.1576290375718,                  233P    358
-8.66294523780072,6.31997713221143,14.1576290375718,-11.801,         233P    359
11.801,-1.48028160545,1.48028160545;                                 233P    360
502,16,-8.66194523780073,8.40000013261306,12.3731964962206,          235P    361
-8.66194523780073,8.40000013261306,12.1231964962206,                 235P    362
-8.66194523780073,6.44143692171306,12.1231964962206,                 235P    363
-8.66194523780073,6.44143692171306,12.3731964962206,                 235P    364
-8.06194523780073,6.44143692171306,12.3731964962206,                 235P    365
-8.06194523780073,6.44143692171306,12.1231964962206,                 235P    366
-8.06194523780073,8.40000013261306,12.1231964962206,                 235P    367
-8.06194523780073,8.40000013261306,12.3731964962206,                 235P    368
-8.06194523780073,8.90000013261306,12.3731964962206,                 235P    369
-8.06194523780073,8.90000013261306,12.1231964962206,                 235P    370
14.9380547621993,8.90000013261306,12.1231964962206,                  235P    371
14.9380547621993,8.90000013261306,12.3731964962206,                  235P    372
14.9380547621993,5.94143692171306,12.3731964962206,                  235P    373
14.9380547621993,5.94143692171306,12.1231964962206,                  235P    374
-8.06194523780073,5.94143692171306,12.1231964962206,                 235P    375
-8.06194523780073,5.94143692171306,12.3731964962206;                 235P    376
502,16,-8.06194523780072,6.31997713221145,11.6980658266718,          237P    377
-8.06194523780072,6.31997713221146,11.1980658266718,                 237P    378
-8.06194523780072,6.06997713221146,11.1980658266718,                 237P    379
-8.06194523780072,6.06997713221145,11.6980658266718,                 237P    380
-8.66194523780072,6.31997713221145,11.6980658266718,                 237P    381
-8.66194523780072,6.06997713221145,11.6980658266718,                 237P    382
-8.66194523780072,6.31997713221143,13.6566290375718,                 237P    383
-8.66194523780072,6.06997713221143,13.6566290375718,                 237P    384
-8.06194523780072,6.31997713221143,13.6566290375718,                 237P    385
-8.06194523780072,6.06997713221143,13.6566290375718,                 237P    386
-8.06194523780072,6.31997713221143,14.1566290375718,                 237P    387
-8.06194523780072,6.06997713221143,14.1566290375718,                 237P    388
14.9380547621993,6.31997713221143,14.1566290375718,                  237P    389
14.9380547621993,6.06997713221143,14.1566290375718,                  237P    390
14.9380547621993,6.31997713221146,11.1980658266718,                  237P    391
14.9380547621993,6.06997713221146,11.1980658266718;                  237P    392
504,24,99,235,1,235,2,101,235,2,235,3,103,235,3,235,4,105,235,4,     239P    393
235,1,107,235,5,235,6,109,235,5,235,4,111,235,6,235,3,113,235,7,     239P    394
235,8,115,235,7,235,2,117,235,8,235,1,119,235,8,235,9,121,235,9,     239P    395
235,10,123,235,10,235,7,125,235,11,235,12,127,235,12,235,13,129,     239P    396
235,13,235,14,131,235,14,235,11,133,235,6,235,15,135,235,15,235,     239P    397
16,137,235,16,235,5,139,235,14,235,15,141,235,11,235,10,143,235,     239P    398
13,235,16,145,235,12,235,9;                                          239P    399
504,24,147,237,1,237,2,149,237,2,237,3,151,237,4,237,3,153,237,      241P    400
1,237,4,155,237,5,237,1,157,237,6,237,4,159,237,5,237,6,161,237,     241P    401
7,237,5,163,237,8,237,6,165,237,7,237,8,167,237,9,237,7,169,237,     241P    402
10,237,8,171,237,9,237,10,173,237,11,237,9,175,237,12,237,10,        241P    403
177,237,11,237,12,179,237,13,237,11,181,237,14,237,12,183,237,       241P    404
13,237,14,185,237,15,237,13,187,237,16,237,14,189,237,15,237,16,     241P    405
191,237,2,237,15,193,237,3,237,16;                                   241P    406
406,1,5HBody5;                                                       243P    407
406,1,23HETRAY-ASM-TRAY-R1 v15:1;                                    245P    408
406,1,12HETREY 2 v1:1;                                               247P    409
406,1,5HBody1;                                                       249P    410
314,62.7450980392157,62.7450980392157,62.7450980392157,13HSteel      251P    411
- Satin;                                                             251P    412
314,96.4705882352941,96.4705882352941,95.2941176470588,19HOpaque     253P    413
(246,246,243);                                                       253P    414
314,20.7843137254902,20.7843137254902,20.7843137254902,16HOpaque     255P    415
(53,53,53);                                                          255P    416
314,62.7450980392157,62.7450980392157,62.7450980392157,19HOpaque     257P    417
(160,160,160);                                                       257P    418
314,96.078431372549,96.078431372549,96.4705882352941,19HOpaque(2     259P    419
45,245,246);                                                         259P    420
S      1G      3D    260P    420                                        T      1
